<?xml version="1.0" encoding="utf-8"?>
<!-- Generator: Adobe Illustrator 26.3.1, SVG Export Plug-In . SVG Version: 6.00 Build 0)  -->
<svg version="1.1" id="Layer_1" xmlns="http://www.w3.org/2000/svg" xmlns:xlink="http://www.w3.org/1999/xlink" x="0px" y="0px"
	 viewBox="0 0 1654.9 779.8" style="enable-background:new 0 0 1654.9 779.8;" xml:space="preserve">
<style type="text/css">
	.st0{fill:#FFFFFF;}
</style>
<g id="Layer_1_00000023996696658725895860000017575982090159979179_">
	<g>
		<path d="M824.9,104.5c14.2,0,28.5,0,42.7,0c7.4,1,14.8,2,22.2,2.9c126.3,15,233.4,99.9,265.3,211.1c5.2,18,7.8,36.5,11.5,54.8
			v38.4c-1.1,6.7-2.2,13.3-3.2,20C1147,544.6,1052.7,641.2,930,670c-20.4,4.8-41.6,7.1-62.4,10.6h-42.7c-7.4-1-14.8-2-22.2-2.9
			c-126.3-15-233.4-99.9-265.3-211.1c-5.2-18-7.8-36.5-11.5-54.8c0-12.8,0-25.6,0-38.4c1.1-6.7,2.2-13.3,3.2-20
			c16.6-113.5,111.2-209.8,234.9-238.5C783.9,110.3,804.6,107.9,824.9,104.5L824.9,104.5z M711.5,452.4
			c-36.8,0.8-60.2-16.9-59.6-47.1c0.4-22.2-3.1-42.5-15.9-62c-8.6-13.1-5.5-18.7,9.2-27.1c19.2-10.9,39.2-20.9,57.4-33.1
			c10.6-7.1,18.3-17.8,27.4-26.7c3-2.9,6.1-6.7,9.9-7.7c39-10.1,78.7-15.4,119.4-12.7c29.3,2,58.6,10.3,87.9-0.6
			c3.7-1.4,8.6,0,12.7-0.8c10.2-1.9,15.8,2.6,17,10.8c3,19.3,4.7,38.7,7.6,58c0.8,5,3,10.2,5.9,14.6c11,16.3,25.1,31.2,33.6,48.5
			c27.8,56.4,28.8,115.7,18.6,175.6c-3.5,20.4-9.8,40.4-15.2,62c4.9-3.4,8.8-5.7,12.3-8.5c80.6-65.3,115.9-146.6,100.6-243.1
			C1113.8,185.6,919.3,82,744,142C631.7,180.3,567,255.5,551,363c-8.2,55.4,4.5,107.6,33.9,156.5c2.2,3.7,8.1,8.7,11.5,8.2
			c45.2-5.4,89.9-13,129.8-34.2c9.6-5.1,19-11.7,25.6-19.7c3.7-4.5,3.8-14,1.1-19.5c-4.2-8.6-29.4-13.7-38.8-9.2
			C712.4,446,712.5,449.6,711.5,452.4L711.5,452.4z M961.3,307.5l4.5-0.5c-1.5-14.9-2.6-29.9-4.6-44.7c-1.2-8.8-7.8-11.3-16.5-7.9
			c-17.9,7-35.7,14.4-53,21.4c2.5-5.3,5.6-12.2,9-19.6c-49.5-8.8-97.8-7.8-145.6,4.7c-3.7,1-8.4,3.2-9.9,6.1
			c-9.3,17.6-26.2,27.6-43.8,37.2c-14.6,8-29.1,16.1-43.7,24.2l0.5,3.4c10.5,1.9,21,3.9,31.8,5.9c-4.4,3.4-9.8,7.5-15.1,11.6
			c-15,11.4-15.8,23.5-1.7,35.9c10.5,9.2,23.3,13.5,37.8,9.9c10.4-2.6,20.7-6.2,30.5-10.2c20.1-8.2,38.7-6.1,56.4,5.1
			c6,3.8,11.7,7.9,19.5,13.1v-23c29.9,15.7,46.9,37.9,55.1,68c20.1-23.2,27.6-48,30-75.9c17.7,43.6,2.9,104.7-30.8,130.7
			C858.5,481,842.1,462,816,449.5c1.2,59.4-31.8,121.4-70.5,133.8c12.5-24.3,24.1-48.5,23.1-76.8c-14.5,6.4-27.2,11.9-39.8,17.4
			c2.8,13.1-5.7,30-19.7,36.5c-13.3,6.2-21.8-3.5-31.1-9.6c-2.6-1.7-4.2-4.7-6.8-6.4c-2.3-1.5-5.7-3.1-8.2-2.7
			c-17.9,2.8-35.8,6.2-54,9.5c4.1,6,9.7,8.3,16.6,7.1c16-3,19.4-0.7,20.5,14c0.5,6.2-1.7,14.9,2,18.2c11.2,10.2,24.7,18.3,37.8,27.7
			c-1.5-11.4-2.7-20.2-4.2-31.6c10.8,2,18.3,2.7,25.3,4.8c11.1,3.3,12.8,9.5,4.3,16.9c-5.2,4.6-11.3,8.5-18.5,13.9
			c16.1,6.8,30.9,14.6,46.7,19.5c26,8,52.1,22,79.7,2c8.3-6,14.2,0.8,16.9,7.7c2.7,6.8,6.9,9.4,14.8,8.5c19.7-2.2,39.5-4.1,59.2-6.1
			c9-0.9,14.5-4.3,15.2-13.6c0.7-8.8,3.6-17.4,6.3-29.3c3.1,13.9,5.5,24.5,8.2,36.3c14.3-5.6,27.1-10.1,39.2-15.7
			c4.1-1.9,8.1-6.1,9.8-10c22.2-51.3,35-104.2,32.9-159.7c-0.3-8.8-3.1-13.5-12.2-18.7c-32.2-18.1-27-23.3-6.7-42
			c2.6-2.4,6.2-7,5.2-8.9c-8.2-17.1-17.4-33.9-26.3-50.8l-2.8,1.5c2.7,19.1,5.3,38.1,8,57.2c-1.5,0.4-3,0.7-4.5,1
			c-15-38.6-37.5-73.2-70.6-105c12.7-10.5,24.7-20.5,36.7-30.5c1.8,0.8,3.6,1.5,5.4,2.3C956.4,281.1,958.8,294.3,961.3,307.5
			L961.3,307.5z M745.5,405.8c-28.8,6-53.7,10.7-76.7-5.8c-1.2,1-2.5,2-3.7,3.1c4.4,9.9,8.9,19.8,11.5,25.6
			C704.3,428.5,727.4,426.9,745.5,405.8L745.5,405.8z"/>
		<path class="st0" d="M824.9,104.5c-20.3,3.4-41,5.7-61,10.4c-123.8,28.7-218.3,125-234.9,238.5c-1,6.7-2.1,13.3-3.2,20
			c0-89.4,0-178.8,0-268.8C625.5,104.5,725.2,104.5,824.9,104.5L824.9,104.5z"/>
		<path class="st0" d="M1166.8,373.3c-3.8-18.3-6.4-36.8-11.5-54.8c-31.9-111.2-139-196.1-265.3-211.1c-7.4-0.9-14.8-1.9-22.2-2.9
			h299.1V373.3z"/>
		<path class="st0" d="M525.8,411.7c3.8,18.3,6.4,36.8,11.5,54.8c31.9,111.2,139,196.1,265.3,211.1c7.4,0.9,14.8,1.9,22.2,2.9H525.8
			C525.8,590.9,525.8,501.3,525.8,411.7L525.8,411.7z"/>
		<path class="st0" d="M867.7,680.5c20.8-3.5,42-5.8,62.4-10.6c122.7-28.8,217-125.3,233.5-238.3c1-6.7,2.1-13.3,3.2-20v268.8
			L867.7,680.5L867.7,680.5z"/>
		<path class="st0" d="M711.5,452.4c0.9-2.8,0.9-6.4,2.5-7.2c9.4-4.5,34.6,0.6,38.8,9.2c2.7,5.5,2.6,15-1.1,19.5
			c-6.5,7.9-16,14.6-25.6,19.7c-40,21.2-84.6,28.9-129.8,34.2c-3.5,0.4-9.3-4.6-11.5-8.2c-29.4-49-42.2-101.1-33.9-156.5
			c16-107.5,80.7-182.7,193-221.1c175.4-60,369.8,43.7,396.4,210.5c15.4,96.5-19.9,177.8-100.6,243.1c-3.5,2.8-7.4,5.1-12.3,8.5
			c5.4-21.6,11.7-41.6,15.2-62c10.2-59.8,9.2-119.2-18.6-175.6c-8.5-17.2-22.5-32.2-33.6-48.5c-3-4.4-5.2-9.5-5.9-14.6
			c-2.9-19.3-4.7-38.7-7.6-58c-1.2-8.2-6.8-12.7-17-10.8c-4.1,0.8-9-0.6-12.7,0.8c-29.3,11-58.5,2.6-87.9,0.6
			c-40.6-2.7-80.4,2.6-119.4,12.7c-3.8,1-6.9,4.8-9.9,7.7c-9.2,8.9-16.8,19.6-27.4,26.7c-18.2,12.2-38.2,22.1-57.4,33.1
			c-14.8,8.4-17.8,14-9.2,27.1c12.8,19.5,16.3,39.8,15.9,62C651.4,435.5,674.7,453.3,711.5,452.4L711.5,452.4z"/>
		<path class="st0" d="M961.3,307.5c-2.5-13.2-4.9-26.4-7.4-39.6c-1.8-0.8-3.6-1.5-5.4-2.3c-12,10-24,20-36.7,30.5
			c33.1,31.8,55.7,66.4,70.6,105c1.5-0.4,3-0.7,4.5-1c-2.7-19.1-5.3-38.1-8-57.2l2.8-1.5c8.9,16.9,18.1,33.7,26.3,50.8
			c1,2-2.7,6.5-5.2,8.9c-20.2,18.7-25.4,23.8,6.7,42c9.1,5.1,11.8,9.8,12.2,18.7c2.2,55.5-10.6,108.4-32.9,159.7
			c-1.7,3.9-5.7,8.1-9.8,10c-12.2,5.6-25,10.1-39.2,15.7c-2.7-11.9-5-22.4-8.2-36.3c-2.7,12-5.6,20.6-6.3,29.3
			c-0.8,9.2-6.3,12.6-15.2,13.6c-19.8,2.1-39.5,3.9-59.2,6.1c-7.9,0.9-12.1-1.8-14.8-8.5c-2.7-6.9-8.6-13.7-16.9-7.7
			c-27.6,20-53.7,6-79.7-2c-15.8-4.9-30.6-12.6-46.7-19.5c7.3-5.4,13.3-9.3,18.5-13.9c8.5-7.4,6.8-13.7-4.3-16.9
			c-7-2-14.5-2.8-25.3-4.8c1.5,11.4,2.7,20.2,4.2,31.6c-13.2-9.3-26.7-17.5-37.8-27.7c-3.7-3.4-1.5-12-2-18.2
			c-1.1-14.7-4.4-16.9-20.5-14c-6.9,1.3-12.4-1.1-16.6-7.1c18.2-3.3,36.1-6.6,54-9.5c2.5-0.4,5.9,1.2,8.2,2.7
			c2.6,1.7,4.2,4.7,6.8,6.4c9.2,6.1,17.8,15.8,31.1,9.6c14-6.5,22.5-23.4,19.7-36.5c12.6-5.5,25.2-11,39.8-17.4
			c1,28.3-10.6,52.5-23.1,76.8c38.7-12.3,71.7-74.4,70.5-133.8c26.1,12.5,42.5,31.5,55.8,53.2c33.7-26,48.5-87.1,30.8-130.7
			c-2.4,27.9-9.9,52.7-30,75.9c-8.3-30-25.3-52.3-55.1-68v23c-7.8-5.3-13.5-9.4-19.5-13.1c-17.7-11.1-36.3-13.3-56.4-5.1
			c-9.9,4-20.1,7.7-30.5,10.2c-14.5,3.5-27.3-0.8-37.8-9.9c-14.2-12.4-13.3-24.4,1.7-35.9c5.3-4.1,10.7-8.2,15.1-11.6
			c-10.8-2-21.3-3.9-31.8-5.9l-0.5-3.4c14.6-8.1,29.1-16.2,43.7-24.2c17.6-9.6,34.5-19.6,43.8-37.2c1.5-2.8,6.2-5.1,9.9-6.1
			c47.8-12.5,96.1-13.5,145.6-4.7c-3.4,7.4-6.6,14.3-9,19.6c17.3-7,35.1-14.4,53-21.4c8.8-3.4,15.3-1,16.5,7.9
			c2,14.9,3.1,29.8,4.6,44.7L961.3,307.5L961.3,307.5z M789.4,636.7c9.1-10.8,17-17.5,20.8-25.8c2.8-6.1-16.7-22.4-22.1-19.1
			c-8.2,5.1-19.2,13.1-19.4,20.2C768.4,619,780.1,626.3,789.4,636.7L789.4,636.7z M797,292c-16.4-2.8-30.3-5.1-39.6-6.7
			c-10.5,11.7-17.9,20-25.4,28.3C751.4,303.6,779.2,317.6,797,292L797,292z M905.8,323.2c-9.2-6.5-14.3-12.5-20.5-13.8
			c-8.4-1.9-12.3,4.4-12.2,11.8c0.2,8.8,5.1,15.5,14.9,14.9C893,335.7,897.5,329.5,905.8,323.2L905.8,323.2z M853.5,308.6
			c-9.1-6-14.7-10.3-21-13.3c-1.1-0.5-7.9,5.8-7.6,6.1c4.2,5.4,8.8,10.6,14.2,14.9C840.1,317,845.6,312.9,853.5,308.6L853.5,308.6z
			 M1018,485c-7.7-4.7-12.7-10.1-16.7-9.6c-4.3,0.6-9.9,6.5-10.5,10.6c-0.4,2.8,6.9,9.1,10.6,9.1C1006,495.1,1010.5,490,1018,485
			L1018,485z M852.3,567.2c-7.7-4.4-12.6-9.3-16-8.5c-4.4,0.9-9.7,6-10.5,10c-0.5,2.4,6.6,8.8,10.2,8.7
			C840.4,577.2,844.7,572.2,852.3,567.2L852.3,567.2z M800.3,254.5c-2.2,0.7-4.4,1.4-6.6,2c-4.8,4.4-9.7,8.8-14.5,13.3
			c3,2,7.4,6.4,8.9,5.7c6.1-2.8,12-6.6,16.6-11.1C805.7,263.2,801.8,257.9,800.3,254.5L800.3,254.5z M919.7,336
			c-3.3,6.6-7,10.7-5.9,12.5c2.5,4.3,7.3,7.5,11.2,11.1c1.8-3,5.6-6.5,4.9-8.9C928.7,346.6,924.8,342.9,919.7,336L919.7,336z
			 M848.8,271.6c4.3-3.9,7.5-6.8,10.7-9.7c-3.6-2-7.4-5.9-10.6-5.5c-4.2,0.5-7.8,4.5-11.7,7C840.4,265.7,843.7,268,848.8,271.6z"/>
		<path class="st0" d="M745.5,405.8c-18.2,21.2-41.2,22.8-68.9,22.9c-2.6-5.8-7-15.7-11.5-25.6c1.2-1,2.5-2,3.7-3.1
			C691.8,416.5,716.7,411.7,745.5,405.8L745.5,405.8z"/>
		<path d="M789.4,636.7c-9.3-10.4-21-17.7-20.7-24.7c0.3-7.1,11.2-15.1,19.4-20.2c5.4-3.3,24.9,13,22.1,19.1
			C806.4,619.2,798.4,625.9,789.4,636.7L789.4,636.7z"/>
		<path d="M797,292c-17.8,25.5-45.6,11.6-65,21.6c7.4-8.3,14.9-16.6,25.4-28.3C766.7,286.9,780.6,289.3,797,292z"/>
		<path d="M905.8,323.2c-8.3,6.3-12.8,12.5-17.8,12.8c-9.8,0.7-14.8-6-14.9-14.9c-0.1-7.4,3.8-13.7,12.2-11.8
			C891.6,310.7,896.6,316.7,905.8,323.2L905.8,323.2z"/>
		<path d="M853.5,308.6c-7.8,4.3-13.4,8.4-14.4,7.7c-5.5-4.2-10-9.5-14.2-14.9c-0.3-0.3,6.5-6.7,7.6-6.1
			C838.8,298.4,844.4,302.6,853.5,308.6L853.5,308.6z"/>
		<path d="M1018,485.1c-7.5,4.9-12,10-16.6,10.1c-3.7,0.1-11.1-6.3-10.6-9.1c0.6-4.1,6.3-10.1,10.5-10.6
			C1005.3,475,1010.4,480.4,1018,485.1L1018,485.1z"/>
		<path d="M852.3,567.2c-7.7,5.1-12,10-16.3,10.1c-3.6,0.1-10.7-6.3-10.2-8.7c0.9-4,6.2-9,10.5-10
			C839.8,557.9,844.6,562.8,852.3,567.2L852.3,567.2z"/>
		<path d="M800.3,254.5c1.6,3.4,5.5,8.7,4.3,9.9c-4.6,4.6-10.4,8.4-16.6,11.1c-1.5,0.7-5.9-3.7-8.9-5.7c4.8-4.4,9.7-8.8,14.5-13.3
			C795.8,255.9,798.1,255.2,800.3,254.5L800.3,254.5z"/>
		<path d="M919.7,336.1c5,6.9,9,10.5,10.2,14.8c0.7,2.4-3.1,5.9-4.9,8.9c-3.9-3.6-8.7-6.8-11.2-11.1
			C912.7,346.8,916.4,342.7,919.7,336.1L919.7,336.1z"/>
		<path d="M848.8,271.6c-5.1-3.6-8.3-5.9-11.6-8.2c3.9-2.5,7.5-6.5,11.7-7c3.2-0.4,7.1,3.5,10.6,5.5
			C856.3,264.8,853.1,267.7,848.8,271.6z"/>
	</g>
</g>
</svg>
